#!OML:ASF I:\golf\golf\golf 2\Subject 1\2002-09-07\Subject1.ASF
:FULLY-SPECIFIED
:DEGREES
182
root -7.34522 17.5593 3.15543 5.73699 37.0235 -8.4562
lowerback 3.91152 -10.493 -18.4306
upperback -1.45133 -14.7615 -3.92247
thorax -0.276184 -7.08687 5.82349
lowerneck -4.33564 22.8934 0.40221
upperneck 8.11607 32.2912 -13.6443
head 5.50502 15.074 -1.73352
rclavicle -1.71352e-013 -2.54444e-014
rhumerus 29.2439 -25.7164 -57.7388
rradius 109.48
rwrist 13.3577
rhand -63.5157 48.6715
rfingers 7.12502
rthumb -35.492 22.2318
lclavicle -1.71352e-013 -2.54444e-014
lhumerus 114.331 -40.0271 42.7643
lradius 39.7587
lwrist -0.636512
lhand -34.6042 -8.466
lfingers 7.12502
lthumb -187.763 -158.629
rfemur -34.5972 17.6213 24.8386
rtibia 37.4644
rfoot -4.92591 28.8047
rtoes 35.3426
lfemur -0.806845 16.8587 1.46505
ltibia 27.1656
lfoot -11.6127 20.0562
ltoes -20.5266
183
root -7.34474 17.5607 3.15348 5.64389 36.9201 -8.59487
lowerback 3.93659 -10.4666 -18.3688
upperback -1.49341 -14.7373 -3.9205
thorax -0.355437 -7.06747 5.81144
lowerneck -3.98897 22.9239 0.492554
upperneck 7.89679 32.2918 -13.7876
head 5.41972 15.1033 -1.82863
rclavicle -1.35372e-013 0
rhumerus 29.1277 -25.8245 -57.0874
rradius 109.392
rwrist 13.3271
rhand -63.3708 49.1802
rfingers 7.12502
rthumb -35.3546 22.7077
lclavicle -1.35372e-013 0
lhumerus 114.306 -40.035 43.0021
lradius 39.9159
lwrist -0.88531
lhand -34.8306 -8.17649
lfingers 7.12502
lthumb -187.981 -158.347
rfemur -34.5263 17.6462 24.979
rtibia 37.3693
rfoot -4.84296 28.8781
rtoes 35.7012
lfemur -0.812594 16.9447 1.61939
ltibia 27.2935
lfoot -11.2414 20.0477
ltoes -21.5124
184
root -7.34233 17.5638 3.15084 5.63207 36.8435 -8.49248
lowerback 4.02618 -10.434 -18.4725
upperback -1.50416 -14.7201 -3.99114
thorax -0.416176 -7.05028 5.81051
lowerneck -3.85146 22.9261 0.568574
upperneck 7.83329 32.2878 -13.8871
head 5.40642 15.1086 -1.8775
rclavicle 8.34896e-015 -6.04305e-014
rhumerus 29.073 -25.9609 -56.5732
rradius 109.336
rwrist 13.4451
rhand -63.5202 48.2077
rfingers 7.12502
rthumb -35.4962 21.769
lclavicle 8.34896e-015 -6.04305e-014
lhumerus 114.295 -40.0829 43.266
lradius 40.0103
lwrist -1.20761
lhand -35.1594 -8.089
lfingers 7.12502
lthumb -188.299 -158.272
rfemur -34.3939 17.8395 24.852
rtibia 37.2632
rfoot -4.74617 28.7234
rtoes 36.0671
lfemur -0.753372 16.9911 1.56729
ltibia 27.4124
lfoot -11.3238 19.8388
ltoes -20.7689
185
root -7.33967 17.5671 3.14735 5.58145 36.7986 -8.48019
lowerback 4.07349 -10.3949 -18.5064
upperback -1.4893 -14.6787 -4.06362
thorax -0.447292 -7.02621 5.76565
lowerneck -3.72302 22.8861 0.766389
upperneck 7.86293 32.2433 -14.0057
head 5.44231 15.0883 -1.93574
rclavicle -6.10269e-014 -4.45278e-014
rhumerus 28.9826 -26.1304 -56.1534
rradius 109.301
rwrist 13.359
rhand -64.2316 46.4267
rfingers 7.12502
rthumb -36.1703 20.1522
lclavicle -6.10269e-014 -4.45278e-014
lhumerus 114.328 -40.1445 43.3996
lradius 40.0589
lwrist -1.37918
lhand -35.5478 -8.18259
lfingers 7.12502
lthumb -188.673 -158.381
rfemur -34.282 18.0081 24.8315
rtibia 37.1497
rfoot -4.62037 28.4697
rtoes 35.9031
lfemur -0.722614 17.0756 1.59534
ltibia 27.4961
lfoot -11.6156 19.5627
ltoes -18.9739
186
root -7.33939 17.5705 3.14391 5.41393 36.7613 -8.75412
lowerback 4.04835 -10.3708 -18.3326
upperback -1.45291 -14.6304 -4.06229
thorax -0.443534 -7.00821 5.68231
lowerneck -3.66837 22.8668 0.915364
upperneck 7.84678 32.2235 -14.1255
head 5.46992 15.0784 -1.98231
rclavicle -9.93923e-015 9.54166e-014
rhumerus 28.9299 -26.2317 -55.7966
rradius 109.185
rwrist 13.0466
rhand -64.6258 45.6181
rfingers 7.12502
rthumb -36.5435 19.437
lclavicle -9.93923e-015 9.54166e-014
lhumerus 114.426 -40.0463 43.3232
lradius 40.0772
lwrist -1.20129
lhand -35.7153 -8.11897
lfingers 7.12502
lthumb -188.835 -158.324
rfemur -34.2445 18.1935 25.05
rtibia 37.0417
rfoot -4.40613 28.2542
rtoes 35.9921
lfemur -0.728929 17.1862 1.88066
ltibia 27.5472
lfoot -11.9708 19.2811
ltoes -16.9691
187
root -7.33887 17.5754 3.1386 5.3174 36.7464 -8.98363
lowerback 4.00248 -10.3709 -18.1897
upperback -1.42463 -14.6112 -4.03751
thorax -0.417257 -7.00554 5.6302
lowerneck -3.78891 22.8745 0.933326
upperneck 7.97464 32.2599 -14.1042
head 5.53105 15.0797 -1.95136
rclavicle 2.72335e-014 2.8625e-014
rhumerus 28.982 -26.2665 -55.5465
rradius 109.023
rwrist 12.8365
rhand -62.8824 49.741
rfingers 7.12502
rthumb -34.8913 23.1597
lclavicle 2.72335e-014 2.8625e-014
lhumerus 114.536 -39.8415 43.2145
lradius 40.0453
lwrist -0.999002
lhand -35.5044 -7.76284
lfingers 7.12502
lthumb -188.632 -157.959
rfemur -34.2675 18.3556 25.1878
rtibia 36.9455
rfoot -4.30976 28.1059
rtoes 36.0317
lfemur -0.800848 17.2478 2.08318
ltibia 27.6079
lfoot -12.21 19.0999
ltoes -15.6369
188
root -7.33595 17.581 3.13105 5.34278 36.7683 -8.97176
lowerback 3.98496 -10.3874 -18.2434
upperback -1.38801 -14.625 -4.02945
thorax -0.349895 -7.01875 5.65237
lowerneck -4.02334 22.8938 0.840623
upperneck 8.22722 32.3323 -13.9954
head 5.62087 15.0847 -1.86743
rclavicle 1.11717e-013 5.40694e-014
rhumerus 29.0903 -26.2897 -55.3587
rradius 108.862
rwrist 12.726
rhand -64.1836 49.6214
rfingers 7.12502
rthumb -36.1248 23.3357
lclavicle 1.11717e-013 5.40694e-014
lhumerus 114.536 -39.6874 43.2459
lradius 39.9126
lwrist -1.46401
lhand -35.8193 -7.62403
lfingers 7.12502
lthumb -188.935 -157.833
rfemur -34.284 18.3919 25.1292
rtibia 36.8729
rfoot -4.18939 28.0283
rtoes 35.9545
lfemur -0.889509 17.2621 2.0326
ltibia 27.6656
lfoot -11.9684 19.1837
ltoes -16.4801
189
root -7.3329 17.5845 3.12362 5.37381 36.8163 -8.85037
lowerback 4.06518 -10.387 -18.3437
upperback -1.36151 -14.6421 -4.07422
thorax -0.35065 -7.02581 5.66499
lowerneck -4.18747 22.9003 0.683103
upperneck 8.35512 32.3544 -13.8355
head 5.63763 15.0819 -1.7904
rclavicle -2.34566e-014 1.90833e-014
rhumerus 29.091 -26.3291 -55.1865
rradius 108.759
rwrist 12.539
rhand -64.6459 48.7931
rfingers 7.12502
rthumb -36.5625 22.6168
lclavicle -2.34566e-014 1.90833e-014
lhumerus 114.441 -39.6586 43.3
lradius 39.7855
lwrist -2.20463
lhand -36.3971 -7.6416
lfingers 7.12502
lthumb -189.493 -157.875
rfemur -34.2498 18.3168 25.0171
rtibia 36.8323
rfoot -3.96122 28.0788
rtoes 36.1124
lfemur -0.911918 17.2939 1.90872
ltibia 27.6857
lfoot -11.639 19.2573
ltoes -17.7962
190
root -7.33131 17.5874 3.11457 5.43399 36.9293 -8.71028
lowerback 4.21444 -10.3866 -18.3968
upperback -1.39381 -14.6827 -4.13535
thorax -0.464228 -7.03247 5.66069
lowerneck -4.18421 22.9146 0.479733
upperneck 8.3686 32.3538 -13.6384
head 5.57688 15.0885 -1.73292
rclavicle -3.97569e-016 4.45278e-014
rhumerus 28.9828 -26.3379 -55.006
rradius 108.688
rwrist 12.1892
rhand -64.4731 48.213
rfingers 7.12502
rthumb -36.399 21.9955
lclavicle -3.97569e-016 4.45278e-014
lhumerus 114.353 -39.6633 43.3338
lradius 39.7199
lwrist -2.06712
lhand -36.0965 -7.40864
lfingers 7.12502
lthumb -189.203 -157.629
rfemur -34.2401 18.295 24.854
rtibia 36.8039
rfoot -3.90849 28.0124
rtoes 36.0566
lfemur -0.992244 17.3457 1.76638
ltibia 27.6928
lfoot -11.5544 19.1864
ltoes -17.7584
191
root -7.32981 17.5918 3.10263 5.47647 37.0982 -8.64615
lowerback 4.29938 -10.3806 -18.3839
upperback -1.42401 -14.6984 -4.18514
thorax -0.557381 -7.03005 5.6261
lowerneck -4.02436 22.9097 0.38968
upperneck 8.34595 32.3241 -13.5452
head 5.51319 15.0887 -1.73108
rclavicle -1.59028e-015 -3.49861e-014
rhumerus 28.7557 -26.3252 -54.7479
rradius 108.587
rwrist 11.6833
rhand -64.2748 48.8539
rfingers 7.12502
rthumb -36.2112 22.5896
lclavicle -1.59028e-015 -3.49861e-014
lhumerus 114.358 -39.6851 43.3484
lradius 39.632
lwrist -1.49653
lhand -35.7227 -7.26875
lfingers 7.12502
lthumb -188.842 -157.474
rfemur -34.2606 18.3749 24.7054
rtibia 36.7526
rfoot -3.94264 27.7318
rtoes 36.0041
lfemur -1.15429 17.3788 1.67065
ltibia 27.7335
lfoot -11.2659 19.2116
ltoes -18.771
